<svg xmlns="http://www.w3.org/2000/svg" width="1440" height="1020" fill="none"><g stroke-dasharray="0.05 8" stroke-linecap="round" stroke-linejoin="round" stroke-width="2" opacity=".8"><path stroke="url(#a)" d="M1546.81 803.391a970.184 970.184 0 0 0 131.2-441.238 1434.208 1434.208 0 0 0-785.949 154.758C650.103 642.095 448.824 833.6 311.791 1069c-18.467 31.22-35 62.44-50.565 93.76 453.828 247.93 1023.194 90.76 1285.584-359.369Z"/><path stroke="url(#b)" d="M1679 311.43c-1.93-329.117-171.13-649.341-474.23-827.963A956.757 956.757 0 0 0 732.894-648.9a956.793 956.793 0 0 0-475.516 118.642C379.166-259.174 582.219-32.633 838.441 118.02A1422.22 1422.22 0 0 0 1679 311.333v.097Z"/><path stroke="url(#c)" d="M218.477-506.786a952.475 952.475 0 0 0-326.497 334.82C-371.287 280.098-228.487 858.106 211.709 1134.45c21.27-31.32 41.767-62.54 61.2-95.69a1450.817 1450.817 0 0 0 195.889-780.627 1450.86 1450.86 0 0 0-250.321-764.919Z"/></g><defs><radialGradient id="a" cx="0" cy="0" r="1" gradientTransform="matrix(0 964.5 -959.5 0 719.5 315.5)" gradientUnits="userSpaceOnUse"><stop stop-color="#4D57E3"/><stop offset="1" stop-color="#4D57E3" stop-opacity="0"/></radialGradient><radialGradient id="b" cx="0" cy="0" r="1" gradientTransform="matrix(0 964.5 -959.5 0 719.5 315.5)" gradientUnits="userSpaceOnUse"><stop stop-color="#4D57E3"/><stop offset="1" stop-color="#4D57E3" stop-opacity="0"/></radialGradient><radialGradient id="c" cx="0" cy="0" r="1" gradientTransform="matrix(0 964.5 -959.5 0 719.5 315.5)" gradientUnits="userSpaceOnUse"><stop stop-color="#4D57E3"/><stop offset="1" stop-color="#4D57E3" stop-opacity="0"/></radialGradient></defs></svg>