<svg xmlns="http://www.w3.org/2000/svg" width="142" height="142" fill="none"><path fill="#D2DEEE" fill-rule="evenodd" d="M35.485 31.057a4.43 4.43 0 0 0-4.43 4.43v10.348h20.697V35.486a4.43 4.43 0 0 0-4.43-4.43H35.486Zm-7.41 4.43a7.409 7.409 0 0 1 7.41-7.41h11.838a7.409 7.409 0 0 1 7.408 7.41v11.838a1.49 1.49 0 0 1-1.489 1.49H29.565a1.49 1.49 0 0 1-1.49-1.49V35.486Z" clip-rule="evenodd"/><path fill="#D2DEEE" fill-rule="evenodd" d="M41.406 16.239c.822 0 1.489.666 1.489 1.49v11.837a1.49 1.49 0 1 1-2.979 0V17.728c0-.823.667-1.49 1.49-1.49ZM23.645 48.814a4.43 4.43 0 0 0-4.43 4.43v71.029a1.49 1.49 0 1 1-2.978 0v-71.03a7.409 7.409 0 0 1 7.409-7.408H59.16a7.409 7.409 0 0 1 7.409 7.409V71a1.49 1.49 0 1 1-2.98 0V53.244a4.43 4.43 0 0 0-4.429-4.43H23.646ZM90.312 25.42a4.43 4.43 0 0 0-5.984 4.146V71a1.49 1.49 0 1 1-2.98 0V29.566a7.41 7.41 0 0 1 10.01-6.935l29.596 11.098a7.41 7.41 0 0 1 4.808 6.942v83.601a1.49 1.49 0 1 1-2.979 0V40.67a4.431 4.431 0 0 0-2.875-4.151L90.312 25.42Z" clip-rule="evenodd"/><path fill="#D2DEEE" fill-rule="evenodd" d="M53.24 72.49a4.43 4.43 0 0 0-4.429 4.43v47.352a1.49 1.49 0 1 1-2.979 0V76.919a7.409 7.409 0 0 1 7.409-7.409h35.515a7.409 7.409 0 0 1 7.408 7.41v47.352a1.49 1.49 0 1 1-2.979 0V76.919a4.43 4.43 0 0 0-4.43-4.43H53.242Z" clip-rule="evenodd"/><path fill="#D2DEEE" fill-rule="evenodd" d="M60.63 104.74c0-.823.666-1.489 1.489-1.489h17.757a1.489 1.489 0 1 1 0 2.979H62.12a1.49 1.49 0 0 1-1.49-1.49ZM60.63 88.758c0-.822.666-1.49 1.489-1.49h17.757a1.49 1.49 0 0 1 0 2.98H62.12a1.49 1.49 0 0 1-1.49-1.49ZM10.32 124.273c0-.823.667-1.49 1.49-1.49h118.383a1.49 1.49 0 0 1 0 2.979H11.81a1.49 1.49 0 0 1-1.49-1.489Z" clip-rule="evenodd"/></svg>