<svg xmlns="http://www.w3.org/2000/svg" width="142" height="142" fill="none"><path fill="#D2DEEE" fill-rule="evenodd" d="M121.961 57.408c-4.089-4.089-10.717-4.089-14.806 0l-1.061-1.06 1.061 1.06c-4.089 4.088-4.089 10.717 0 14.806 4.089 4.088 10.717 4.088 14.806 0 4.089-4.089 4.089-10.718 0-14.806Zm2.12-2.123c-5.26-5.259-13.787-5.258-19.047.001-5.26 5.26-5.26 13.789 0 19.049s13.788 5.26 19.048 0c5.26-5.26 5.26-13.788 0-19.049h-.001ZM82.97 36.042c-6.611-6.612-17.331-6.612-23.943 0-6.612 6.612-6.612 17.332 0 23.943 6.612 6.612 17.332 6.612 23.943 0 6.612-6.611 6.612-17.33.001-23.942Zm2.122-2.121c-7.784-7.784-20.403-7.784-28.186 0-7.783 7.783-7.783 20.402 0 28.186 7.783 7.783 20.402 7.783 28.186 0 7.783-7.784 7.783-20.403 0-28.186ZM34.846 57.408c-4.089-4.089-10.718-4.089-14.806 0-4.089 4.088-4.089 10.717 0 14.806 4.088 4.088 10.717 4.088 14.806 0 4.088-4.089 4.088-10.718 0-14.806Zm2.121-2.122c-5.26-5.26-13.788-5.26-19.048 0-5.26 5.26-5.26 13.789 0 19.049s13.788 5.26 19.048 0c5.26-5.26 5.26-13.788 0-19.049ZM115.053 91.14a1.5 1.5 0 0 1 1.5-1.5h4.74c8.999 0 16.291 7.293 16.291 16.292v6.485a1.5 1.5 0 1 1-3 0v-6.485c0-7.342-5.949-13.291-13.291-13.291h-4.74a1.5 1.5 0 0 1-1.5-1.5ZM20.708 92.64c-7.342 0-13.291 5.95-13.291 13.292v6.485a1.5 1.5 0 0 1-3 0v-6.485c0-9 7.292-16.291 16.291-16.291h4.74a1.5 1.5 0 0 1 0 3h-4.74ZM37.906 102.944c0-12.266 9.943-22.209 22.208-22.209h21.768c12.265 0 22.208 9.943 22.208 22.209v9.472a1.5 1.5 0 1 1-3 0v-9.472c0-10.609-8.6-19.209-19.209-19.209H60.115c-10.608 0-19.208 8.6-19.208 19.209v9.472a1.5 1.5 0 1 1-3 0v-9.472Z" clip-rule="evenodd"/></svg>